<svg id="svg" version="1.1" xmlns="http://www.w3.org/2000/svg" xmlns:xlink="http://www.w3.org/1999/xlink" width="400" height="400" viewBox="0, 0, 400,400"><g id="svgg"><path id="path0" d="M84.400 88.556 C 76.019 91.487,71.030 97.202,69.349 105.800 C 68.536 109.955,68.536 256.045,69.349 260.200 C 70.994 268.612,75.951 274.330,84.181 277.310 C 86.579 278.178,86.866 278.187,117.500 278.309 L 148.400 278.432 148.390 279.516 C 148.384 280.112,147.163 286.720,145.676 294.200 L 142.972 307.800 139.786 308.048 C 120.900 309.516,118.750 334.029,137.233 337.155 C 141.407 337.861,261.537 337.767,264.200 337.056 C 281.509 332.433,278.027 308.000,260.059 308.000 C 258.090 308.000,257.132 307.841,257.041 307.500 C 256.851 306.794,254.776 295.957,254.188 292.600 C 253.918 291.060,253.216 287.480,252.627 284.644 C 252.039 281.808,251.648 279.252,251.759 278.962 C 251.923 278.536,257.830 278.412,283.080 278.305 C 313.657 278.176,314.236 278.159,316.275 277.331 C 323.968 274.204,328.874 268.563,330.747 260.694 C 331.393 257.977,331.393 108.023,330.747 105.306 C 328.758 96.950,323.901 91.408,316.082 88.571 L 313.403 87.600 200.202 87.623 L 87.000 87.647 84.400 88.556 M307.941 102.025 C 312.023 102.900,315.642 106.333,316.692 110.328 C 317.505 113.418,317.414 230.124,316.599 230.801 C 316.119 231.199,292.445 231.229,199.699 230.950 L 83.400 230.600 83.400 170.400 C 83.400 113.054,83.434 110.128,84.126 108.684 C 85.155 106.537,87.009 104.546,89.155 103.285 L 91.000 102.200 145.600 101.994 C 256.684 101.576,305.893 101.585,307.941 102.025 M226.200 146.002 C 214.320 151.925,203.565 157.237,202.300 157.807 L 200.000 158.845 200.000 189.265 C 200.000 215.765,200.075 219.657,200.584 219.462 C 200.905 219.338,211.793 213.964,224.779 207.519 L 248.390 195.800 248.395 165.500 C 248.398 148.835,248.265 135.208,248.100 135.217 C 247.935 135.227,238.080 140.080,226.200 146.002 " stroke="none" fill="#efeff4" fill-rule="evenodd"></path><path id="path1" d="M145.800 102.413 C 115.880 102.537,90.907 102.786,90.304 102.965 C 88.544 103.489,85.565 106.397,84.546 108.585 L 83.608 110.600 83.604 170.450 L 83.600 230.300 199.830 230.600 C 272.267 230.786,316.202 230.758,316.437 230.523 C 316.669 230.291,316.772 207.149,316.706 169.974 L 316.600 109.800 315.515 107.955 C 314.341 105.957,312.347 104.029,310.295 102.907 C 308.827 102.106,256.951 101.950,145.800 102.413 M205.000 114.976 C 206.760 115.777,208.560 116.587,209.000 116.775 C 209.440 116.962,210.790 117.568,212.000 118.120 C 213.210 118.673,215.100 119.520,216.200 120.004 C 217.300 120.487,219.280 121.386,220.600 122.000 C 223.313 123.263,225.050 124.044,230.200 126.318 C 232.180 127.192,234.880 128.398,236.200 128.997 C 237.520 129.596,239.230 130.358,240.000 130.691 C 241.330 131.265,243.628 132.301,246.860 133.784 C 247.680 134.160,248.423 134.837,248.555 135.327 C 249.066 137.232,248.822 195.019,248.300 195.691 C 247.644 196.536,201.153 219.600,200.106 219.600 C 199.368 219.600,193.622 216.806,162.500 201.312 L 151.600 195.886 151.600 165.559 L 151.600 135.231 152.475 134.416 C 152.957 133.967,153.508 133.600,153.701 133.600 C 153.893 133.600,155.254 133.039,156.725 132.354 C 160.526 130.583,163.098 129.409,165.400 128.393 C 166.500 127.908,168.390 127.060,169.600 126.510 C 171.891 125.469,182.074 120.898,185.200 119.507 C 186.190 119.067,187.900 118.294,189.000 117.791 C 190.100 117.287,191.900 116.478,193.000 115.993 C 194.100 115.508,195.900 114.707,197.000 114.214 C 200.485 112.653,199.744 112.583,205.000 114.976 " stroke="none" fill="#343840" fill-rule="evenodd"></path><path id="path2" d="M179.000 0.461 C 171.102 1.164,170.186 1.281,169.820 1.634 C 169.611 1.835,168.497 2.000,167.344 2.000 C 166.191 2.000,165.136 2.180,165.000 2.400 C 164.864 2.620,163.874 2.800,162.800 2.800 C 161.726 2.800,160.736 2.980,160.600 3.200 C 160.464 3.420,159.654 3.600,158.800 3.600 C 157.946 3.600,157.136 3.780,157.000 4.000 C 156.864 4.220,156.054 4.400,155.200 4.400 C 154.346 4.400,153.536 4.580,153.400 4.800 C 153.264 5.020,152.533 5.200,151.776 5.200 C 151.019 5.200,150.400 5.380,150.400 5.600 C 150.400 5.820,149.680 6.000,148.800 6.000 C 147.920 6.000,147.200 6.180,147.200 6.400 C 147.200 6.620,146.570 6.800,145.800 6.800 C 145.030 6.800,144.400 6.980,144.400 7.200 C 144.400 7.420,143.860 7.600,143.200 7.600 C 142.540 7.600,142.000 7.780,142.000 8.000 C 142.000 8.220,141.381 8.400,140.624 8.400 C 139.867 8.400,139.141 8.572,139.011 8.783 C 138.881 8.993,138.533 9.073,138.239 8.960 C 137.944 8.846,137.455 8.995,137.152 9.290 C 136.848 9.584,136.240 9.831,135.800 9.837 C 135.360 9.844,134.326 10.155,133.503 10.529 C 132.679 10.903,131.554 11.246,131.003 11.292 C 130.451 11.337,130.000 11.515,130.000 11.687 C 130.000 11.859,129.811 12.000,129.581 12.000 C 129.350 12.000,128.416 12.360,127.506 12.800 C 126.595 13.240,125.695 13.600,125.506 13.600 C 125.316 13.600,124.416 13.960,123.506 14.400 C 122.595 14.840,121.695 15.200,121.506 15.200 C 121.316 15.200,120.416 15.560,119.506 16.000 C 118.595 16.440,117.614 16.800,117.325 16.800 C 117.036 16.800,116.800 16.980,116.800 17.200 C 116.800 17.420,116.440 17.600,116.000 17.600 C 115.560 17.600,115.200 17.780,115.200 18.000 C 115.200 18.220,114.840 18.400,114.400 18.400 C 113.960 18.400,113.600 18.580,113.600 18.800 C 113.600 19.020,113.251 19.200,112.824 19.200 C 112.397 19.200,111.936 19.380,111.800 19.600 C 111.664 19.820,111.218 20.000,110.810 20.000 C 110.401 20.000,110.007 20.135,109.933 20.300 C 109.766 20.676,107.636 21.975,106.700 22.271 C 106.315 22.393,106.000 22.652,106.000 22.847 C 106.000 23.041,105.676 23.200,105.280 23.200 C 104.884 23.200,104.389 23.363,104.180 23.562 C 103.971 23.761,102.552 24.580,101.026 25.383 C 99.500 26.186,97.466 27.374,96.506 28.022 C 95.546 28.670,94.657 29.200,94.530 29.200 C 94.311 29.200,89.834 32.047,89.000 32.718 C 88.780 32.894,87.430 33.827,86.000 34.789 C 84.570 35.752,83.310 36.655,83.200 36.796 C 83.090 36.937,82.190 37.614,81.200 38.300 C 80.210 38.986,78.863 40.022,78.206 40.601 C 77.550 41.180,76.335 42.035,75.506 42.501 C 74.678 42.966,74.000 43.572,74.000 43.847 C 74.000 44.121,73.641 44.460,73.202 44.599 C 72.763 44.739,71.478 45.696,70.347 46.726 C 69.215 47.757,67.969 48.870,67.578 49.200 C 67.187 49.530,66.537 50.077,66.134 50.417 C 63.930 52.269,61.205 54.800,61.415 54.800 C 61.548 54.800,61.387 55.070,61.057 55.400 C 60.727 55.730,60.264 56.000,60.029 56.000 C 59.793 56.000,59.600 56.142,59.600 56.317 C 59.600 56.791,56.863 59.600,56.401 59.600 C 56.180 59.600,56.000 59.793,56.000 60.029 C 56.000 60.264,55.730 60.727,55.400 61.057 C 55.070 61.387,54.800 61.548,54.800 61.415 C 54.800 61.196,51.923 64.307,50.417 66.157 C 48.187 68.894,46.188 70.984,45.890 70.890 C 45.698 70.830,45.637 70.936,45.755 71.127 C 45.873 71.318,45.079 72.448,43.991 73.637 C 42.903 74.827,42.009 75.980,42.005 76.200 C 42.001 76.420,41.447 77.230,40.773 78.000 C 40.100 78.770,38.983 80.210,38.291 81.200 C 37.599 82.190,36.711 83.349,36.317 83.775 C 35.922 84.202,35.600 84.772,35.600 85.042 C 35.600 85.312,35.447 85.593,35.260 85.667 C 35.074 85.740,33.859 87.420,32.560 89.400 C 31.262 91.380,29.975 93.238,29.700 93.529 C 29.425 93.819,29.200 94.236,29.200 94.455 C 29.200 94.674,28.750 95.443,28.200 96.164 C 27.650 96.886,27.200 97.606,27.200 97.766 C 27.200 97.925,26.660 98.841,26.000 99.800 C 25.340 100.759,24.800 101.827,24.800 102.172 C 24.800 102.517,24.665 102.801,24.500 102.803 C 24.141 102.807,23.200 104.744,23.200 105.480 C 23.200 105.766,23.020 106.000,22.800 106.000 C 22.580 106.000,22.400 106.278,22.400 106.617 C 22.400 106.956,22.040 107.620,21.600 108.092 C 21.160 108.564,20.800 109.187,20.800 109.475 C 20.800 109.764,20.620 110.000,20.400 110.000 C 20.180 110.000,20.000 110.236,20.000 110.525 C 20.000 110.814,19.666 111.759,19.259 112.625 C 18.851 113.491,18.267 114.785,17.961 115.500 C 17.655 116.215,17.269 116.800,17.102 116.800 C 16.936 116.800,16.800 117.036,16.800 117.325 C 16.800 117.614,16.440 118.595,16.000 119.506 C 15.560 120.416,15.200 121.440,15.200 121.781 C 15.200 122.121,15.020 122.400,14.800 122.400 C 14.580 122.400,14.401 122.625,14.402 122.900 C 14.405 123.470,11.971 129.695,11.626 130.000 C 11.502 130.110,11.337 130.650,11.259 131.200 C 11.182 131.750,10.778 132.906,10.362 133.769 C 9.946 134.633,9.687 135.420,9.787 135.520 C 9.887 135.620,9.730 136.174,9.439 136.751 C 9.148 137.328,8.985 138.009,9.076 138.263 C 9.167 138.518,9.053 138.844,8.821 138.987 C 8.590 139.130,8.400 139.867,8.400 140.624 C 8.400 141.381,8.220 142.000,8.000 142.000 C 7.780 142.000,7.600 142.540,7.600 143.200 C 7.600 143.860,7.420 144.400,7.200 144.400 C 6.980 144.400,6.800 144.942,6.800 145.605 C 6.800 146.268,6.642 147.123,6.449 147.505 C 5.820 148.751,5.200 151.034,5.200 152.105 C 5.200 152.681,5.020 153.264,4.800 153.400 C 4.580 153.536,4.400 154.346,4.400 155.200 C 4.400 156.054,4.220 156.864,4.000 157.000 C 3.780 157.136,3.600 157.946,3.600 158.800 C 3.600 159.654,3.420 160.464,3.200 160.600 C 2.980 160.736,2.800 161.636,2.800 162.600 C 2.800 163.564,2.620 164.464,2.400 164.600 C 2.180 164.736,2.000 165.827,2.000 167.024 C 2.000 168.221,1.847 169.200,1.661 169.200 C 1.474 169.200,1.283 170.499,1.237 172.088 C 1.191 173.676,0.949 175.221,0.699 175.522 C 0.054 176.298,-0.200 212.866,0.391 219.800 C 0.635 222.660,0.931 226.170,1.049 227.600 C 1.168 229.030,1.430 230.371,1.632 230.580 C 1.835 230.789,2.000 231.914,2.000 233.080 C 2.000 234.246,2.180 235.200,2.400 235.200 C 2.620 235.200,2.800 236.089,2.800 237.176 C 2.800 238.263,2.980 239.264,3.200 239.400 C 3.420 239.536,3.600 240.346,3.600 241.200 C 3.600 242.054,3.780 242.864,4.000 243.000 C 4.220 243.136,4.400 243.957,4.400 244.824 C 4.400 245.691,4.580 246.400,4.800 246.400 C 5.020 246.400,5.200 247.120,5.200 248.000 C 5.200 248.880,5.380 249.600,5.600 249.600 C 5.820 249.600,6.000 250.219,6.000 250.976 C 6.000 251.733,6.180 252.464,6.400 252.600 C 6.620 252.736,6.800 253.467,6.800 254.224 C 6.800 254.981,6.980 255.600,7.200 255.600 C 7.420 255.600,7.600 256.129,7.600 256.776 C 7.600 257.423,7.780 258.064,8.000 258.200 C 8.220 258.336,8.400 258.966,8.400 259.600 C 8.400 260.234,8.590 260.870,8.821 261.013 C 9.053 261.156,9.167 261.482,9.076 261.737 C 8.985 261.991,9.148 262.672,9.439 263.249 C 9.730 263.826,9.873 264.394,9.756 264.510 C 9.640 264.627,9.728 265.055,9.953 265.461 C 10.649 266.721,11.540 268.913,12.204 271.000 C 12.973 273.418,13.255 274.128,14.270 276.200 C 14.700 277.080,15.305 278.655,15.614 279.700 C 15.922 280.745,16.315 281.600,16.487 281.600 C 16.659 281.600,16.800 281.960,16.800 282.400 C 16.800 282.840,16.935 283.201,17.100 283.203 C 17.459 283.207,18.400 285.144,18.400 285.880 C 18.400 286.166,18.580 286.400,18.800 286.400 C 19.020 286.400,19.200 286.652,19.200 286.959 C 19.200 287.267,19.766 288.572,20.459 289.859 C 21.151 291.147,21.916 292.604,22.159 293.097 C 22.401 293.590,22.735 293.995,22.900 293.997 C 23.065 293.999,23.200 294.360,23.200 294.800 C 23.200 295.240,23.380 295.600,23.600 295.600 C 23.820 295.600,24.000 295.960,24.000 296.400 C 24.000 296.840,24.180 297.200,24.400 297.200 C 24.620 297.200,24.800 297.397,24.800 297.638 C 24.800 297.879,25.136 298.554,25.548 299.138 C 25.959 299.722,26.431 300.636,26.596 301.169 C 26.762 301.702,27.066 302.332,27.271 302.569 C 27.965 303.370,34.000 312.849,34.000 313.137 C 34.000 313.295,34.360 313.683,34.800 314.000 C 35.240 314.317,35.600 314.831,35.600 315.141 C 35.600 315.452,35.926 315.997,36.325 316.353 C 36.724 316.709,37.662 317.900,38.411 319.000 C 39.159 320.100,40.137 321.382,40.585 321.850 C 42.034 323.360,42.713 324.297,42.986 325.157 C 43.134 325.621,43.473 326.000,43.741 326.000 C 44.008 326.000,44.520 326.495,44.879 327.100 C 45.237 327.705,45.913 328.650,46.381 329.200 C 49.140 332.438,52.266 335.835,55.700 339.328 C 57.845 341.510,59.600 343.454,59.600 343.648 C 59.600 343.841,59.771 344.000,59.981 344.000 C 60.191 344.000,61.602 345.260,63.118 346.800 C 64.634 348.340,66.067 349.600,66.304 349.600 C 66.540 349.600,66.793 349.735,66.867 349.900 C 67.048 350.307,71.086 353.963,72.722 355.200 C 73.449 355.750,74.529 356.605,75.122 357.100 C 75.715 357.594,76.333 357.999,76.497 358.000 C 76.660 358.000,77.309 358.540,77.940 359.200 C 78.571 359.860,79.200 360.400,79.339 360.400 C 79.586 360.400,80.775 361.312,81.816 362.300 C 82.106 362.575,82.536 362.800,82.771 362.800 C 83.007 362.800,83.200 362.980,83.200 363.200 C 83.200 363.420,83.470 363.600,83.800 363.600 C 84.130 363.600,84.401 363.735,84.402 363.900 C 84.403 364.065,85.392 364.830,86.600 365.600 C 87.808 366.370,88.797 367.135,88.798 367.300 C 88.799 367.465,89.070 367.600,89.400 367.600 C 89.730 367.600,90.000 367.780,90.000 368.000 C 90.000 368.220,90.208 368.400,90.462 368.400 C 90.716 368.400,91.571 368.894,92.362 369.498 C 93.153 370.103,94.291 370.868,94.892 371.198 C 95.492 371.529,97.329 372.565,98.973 373.500 C 100.617 374.435,102.151 375.200,102.381 375.200 C 102.612 375.200,102.800 375.380,102.800 375.600 C 102.800 375.820,103.160 376.000,103.600 376.000 C 104.040 376.000,104.400 376.180,104.400 376.400 C 104.400 376.620,104.678 376.800,105.017 376.800 C 105.356 376.800,106.020 377.160,106.492 377.600 C 106.964 378.040,107.767 378.400,108.275 378.400 C 108.784 378.400,109.200 378.580,109.200 378.800 C 109.200 379.020,109.425 379.204,109.700 379.209 C 109.975 379.214,110.650 379.570,111.200 380.000 C 111.750 380.430,112.515 380.786,112.900 380.791 C 113.285 380.796,113.600 380.980,113.600 381.200 C 113.600 381.420,113.865 381.600,114.188 381.600 C 114.511 381.600,115.417 381.960,116.200 382.400 C 116.983 382.840,117.889 383.200,118.212 383.200 C 118.535 383.200,118.800 383.344,118.800 383.520 C 118.800 383.695,119.475 384.068,120.300 384.347 C 121.704 384.822,124.513 386.032,126.095 386.844 C 126.477 387.040,127.141 387.200,127.571 387.200 C 128.001 387.200,128.464 387.380,128.600 387.600 C 128.736 387.820,129.197 388.000,129.624 388.000 C 130.051 388.000,130.400 388.180,130.400 388.400 C 130.400 388.620,130.752 388.800,131.181 388.800 C 131.611 388.800,132.376 388.965,132.881 389.167 C 134.581 389.847,135.396 390.119,136.183 390.270 C 136.613 390.353,137.090 390.622,137.242 390.868 C 137.395 391.115,137.802 391.208,138.147 391.076 C 138.492 390.943,138.881 391.007,139.011 391.217 C 139.141 391.428,139.867 391.600,140.624 391.600 C 141.381 391.600,142.000 391.780,142.000 392.000 C 142.000 392.220,142.540 392.400,143.200 392.400 C 143.860 392.400,144.400 392.580,144.400 392.800 C 144.400 393.020,145.030 393.200,145.800 393.200 C 146.570 393.200,147.200 393.380,147.200 393.600 C 147.200 393.820,147.920 394.000,148.800 394.000 C 149.680 394.000,150.400 394.180,150.400 394.400 C 150.400 394.620,151.019 394.800,151.776 394.800 C 152.533 394.800,153.264 394.980,153.400 395.200 C 153.536 395.420,154.357 395.600,155.224 395.600 C 156.091 395.600,156.800 395.780,156.800 396.000 C 156.800 396.220,157.599 396.400,158.576 396.400 C 159.553 396.400,160.464 396.580,160.600 396.800 C 160.736 397.020,161.726 397.200,162.800 397.200 C 163.874 397.200,164.864 397.380,165.000 397.600 C 165.136 397.820,166.126 398.000,167.200 398.000 C 168.274 398.000,169.264 398.180,169.400 398.400 C 169.536 398.620,170.861 398.800,172.344 398.800 C 173.827 398.800,175.216 398.976,175.431 399.191 C 175.938 399.698,195.200 400.256,195.200 399.765 C 195.200 399.565,181.034 385.235,163.720 367.920 C 136.425 340.624,132.477 336.529,134.020 337.119 C 135.668 337.750,140.471 337.801,199.000 337.810 L 262.200 337.819 199.600 337.594 C 155.747 337.437,136.553 337.237,135.506 336.928 C 118.553 331.921,121.882 309.441,139.783 308.048 L 142.966 307.800 144.464 300.400 C 146.082 292.408,146.212 291.422,145.600 291.800 C 145.380 291.936,145.200 292.836,145.200 293.800 C 145.200 294.764,145.020 295.664,144.800 295.800 C 144.580 295.936,144.400 296.836,144.400 297.800 C 144.400 298.764,144.220 299.664,144.000 299.800 C 143.780 299.936,143.600 300.836,143.600 301.800 C 143.600 302.764,143.420 303.664,143.200 303.800 C 142.980 303.936,142.800 304.847,142.800 305.824 L 142.800 307.600 139.424 307.600 C 137.567 307.600,135.936 307.780,135.800 308.000 C 135.664 308.220,135.023 308.400,134.376 308.400 C 133.729 308.400,133.200 308.580,133.200 308.800 C 133.200 309.020,132.840 309.200,132.400 309.200 C 131.960 309.200,131.600 309.380,131.600 309.600 C 131.600 309.820,131.360 310.000,131.068 310.000 C 129.828 310.000,124.800 316.231,124.800 317.766 C 124.800 318.065,124.562 318.767,124.272 319.327 C 123.747 320.338,123.575 320.177,101.573 298.173 C 89.379 285.978,79.627 276.000,79.901 276.000 C 80.176 276.000,80.400 276.180,80.400 276.400 C 80.400 276.620,80.749 276.800,81.176 276.800 C 81.603 276.800,82.064 276.980,82.200 277.200 C 82.336 277.420,82.851 277.600,83.344 277.600 C 83.837 277.600,84.411 277.762,84.620 277.959 C 85.476 278.768,89.907 278.913,118.300 279.061 C 134.635 279.145,147.994 279.347,147.987 279.507 C 147.979 279.668,147.610 281.510,147.165 283.600 C 146.398 287.207,145.784 291.858,146.188 291.000 C 146.530 290.275,148.400 280.521,148.400 279.466 L 148.400 278.432 117.500 278.309 C 86.866 278.187,86.579 278.178,84.181 277.310 C 75.951 274.330,70.994 268.612,69.349 260.200 C 68.536 256.045,68.536 109.955,69.349 105.800 C 71.052 97.090,76.252 91.237,84.775 88.440 L 87.332 87.600 200.368 87.600 L 313.403 87.600 316.082 88.571 C 323.901 91.408,328.758 96.950,330.747 105.306 C 331.393 108.023,331.393 257.977,330.747 260.694 C 328.874 268.563,323.968 274.204,316.275 277.331 C 314.236 278.159,313.657 278.176,283.080 278.305 C 257.830 278.412,251.923 278.536,251.759 278.962 C 251.563 279.474,253.460 289.593,253.820 289.953 C 254.088 290.221,253.997 288.836,253.613 286.800 C 253.427 285.810,253.092 284.010,252.869 282.800 C 252.646 281.590,252.340 280.285,252.189 279.900 C 251.929 279.237,253.496 279.200,281.734 279.200 C 301.182 279.200,311.639 279.061,311.800 278.800 C 311.936 278.580,312.836 278.400,313.800 278.400 C 314.764 278.400,315.664 278.220,315.800 278.000 C 315.936 277.780,316.487 277.600,317.024 277.600 C 317.561 277.600,318.000 277.420,318.000 277.200 C 318.000 276.980,318.360 276.800,318.800 276.800 C 319.240 276.800,319.600 276.620,319.600 276.400 C 319.600 276.180,319.793 276.000,320.028 276.000 C 321.129 276.000,325.351 272.509,326.800 270.400 C 327.329 269.630,327.863 268.910,327.986 268.800 C 328.110 268.690,328.633 267.700,329.149 266.600 C 329.665 265.500,330.248 264.287,330.444 263.905 C 330.640 263.523,330.800 262.769,330.800 262.229 C 330.800 261.689,330.980 261.136,331.200 261.000 C 331.464 260.837,331.600 234.404,331.600 183.000 C 331.600 131.596,331.464 105.163,331.200 105.000 C 330.980 104.864,330.800 104.133,330.800 103.376 C 330.800 102.619,330.620 102.000,330.400 102.000 C 330.180 102.000,330.000 101.550,330.000 101.000 C 330.000 100.450,329.820 100.000,329.600 100.000 C 329.380 100.000,329.200 99.643,329.200 99.207 C 329.200 98.676,340.460 109.676,363.186 132.407 C 395.664 164.892,398.477 167.581,397.801 165.500 C 397.641 165.005,397.421 163.880,397.314 163.000 C 397.206 162.120,396.956 161.229,396.759 161.020 C 396.562 160.811,396.400 159.776,396.400 158.720 C 396.400 157.664,396.220 156.800,396.000 156.800 C 395.780 156.800,395.600 156.080,395.600 155.200 C 395.600 154.320,395.420 153.600,395.200 153.600 C 394.980 153.600,394.800 153.028,394.800 152.328 C 394.800 151.065,394.222 148.835,393.551 147.505 C 393.358 147.123,393.200 146.268,393.200 145.605 C 393.200 144.942,393.020 144.400,392.800 144.400 C 392.580 144.400,392.400 143.871,392.400 143.224 C 392.400 142.577,392.241 141.949,392.046 141.829 C 391.721 141.627,391.324 140.180,391.052 138.200 C 390.992 137.760,390.748 137.040,390.511 136.600 C 390.273 136.160,390.073 135.710,390.065 135.600 C 390.046 135.314,389.597 133.955,389.167 132.881 C 388.965 132.376,388.800 131.611,388.800 131.181 C 388.800 130.752,388.659 130.400,388.487 130.400 C 388.315 130.400,387.925 129.545,387.620 128.500 C 387.040 126.513,387.018 126.458,385.650 123.662 C 385.183 122.706,384.800 121.730,384.800 121.493 C 384.800 121.087,383.729 118.775,379.892 110.900 C 379.008 109.085,378.130 107.600,377.942 107.600 C 377.754 107.600,377.600 107.366,377.600 107.080 C 377.600 106.344,376.659 104.407,376.300 104.403 C 376.135 104.401,376.000 104.040,376.000 103.600 C 376.000 103.160,375.820 102.800,375.600 102.800 C 375.380 102.800,375.200 102.517,375.200 102.172 C 375.200 101.827,374.660 100.759,374.000 99.800 C 373.340 98.841,372.800 97.975,372.800 97.876 C 372.800 97.619,370.363 93.622,369.300 92.135 C 368.805 91.443,368.393 90.724,368.384 90.538 C 368.375 90.352,367.835 89.577,367.184 88.815 C 366.533 88.053,366.000 87.198,366.000 86.915 C 366.000 86.632,365.862 86.400,365.694 86.400 C 365.526 86.400,364.944 85.680,364.400 84.800 C 363.856 83.920,363.274 83.200,363.106 83.200 C 362.938 83.200,362.800 83.022,362.800 82.805 C 362.800 82.433,362.040 81.385,360.900 80.184 C 360.625 79.894,360.400 79.480,360.400 79.264 C 360.400 79.048,359.846 78.405,359.169 77.836 C 358.492 77.266,358.055 76.800,358.198 76.800 C 358.340 76.800,358.219 76.536,357.929 76.214 C 357.044 75.233,356.585 74.649,355.237 72.787 C 354.526 71.804,352.966 69.966,351.772 68.702 C 350.577 67.438,349.600 66.293,349.600 66.156 C 349.600 65.899,344.930 60.966,343.256 59.453 C 342.736 58.984,340.748 57.070,338.838 55.200 C 334.965 51.407,329.707 46.663,327.886 45.318 C 327.230 44.832,326.365 44.112,325.965 43.718 C 324.887 42.653,324.063 42.000,323.799 42.000 C 323.671 42.000,323.078 41.540,322.483 40.977 C 321.887 40.415,320.905 39.656,320.300 39.291 C 319.695 38.926,319.200 38.486,319.200 38.314 C 319.200 38.141,318.930 38.000,318.600 38.000 C 318.270 38.000,318.000 37.820,318.000 37.600 C 318.000 37.380,317.730 37.200,317.400 37.200 C 317.070 37.200,316.800 37.062,316.800 36.894 C 316.800 36.726,316.080 36.144,315.200 35.600 C 314.320 35.056,313.600 34.474,313.600 34.306 C 313.600 34.138,313.364 34.000,313.075 34.000 C 312.787 34.000,312.164 33.640,311.692 33.200 C 311.220 32.760,310.746 32.400,310.639 32.400 C 310.408 32.400,303.201 27.808,302.543 27.242 C 302.291 27.025,301.966 26.967,301.821 27.112 C 301.675 27.258,301.431 27.202,301.278 26.988 C 300.931 26.503,298.834 25.225,297.900 24.929 C 297.515 24.807,297.200 24.548,297.200 24.353 C 297.200 24.159,296.840 24.000,296.400 24.000 C 295.960 24.000,295.600 23.820,295.600 23.600 C 295.600 23.380,295.240 23.200,294.800 23.200 C 294.360 23.200,294.000 23.020,294.000 22.800 C 294.000 22.580,293.764 22.400,293.475 22.400 C 293.187 22.400,292.564 22.040,292.092 21.600 C 291.620 21.160,290.881 20.800,290.450 20.800 C 290.019 20.800,289.607 20.657,289.533 20.481 C 289.411 20.188,287.814 19.390,284.500 17.964 C 283.785 17.656,283.200 17.269,283.200 17.102 C 283.200 16.936,282.964 16.800,282.675 16.800 C 282.184 16.800,279.471 15.654,277.905 14.785 C 277.523 14.573,276.938 14.400,276.605 14.400 C 276.272 14.400,276.000 14.209,276.000 13.976 C 276.000 13.743,275.852 13.644,275.671 13.756 C 275.491 13.868,274.906 13.737,274.371 13.465 C 273.837 13.193,272.590 12.733,271.600 12.444 C 270.610 12.154,269.212 11.674,268.493 11.376 C 267.774 11.078,267.089 10.841,266.972 10.850 C 266.854 10.858,266.302 10.566,265.744 10.200 C 265.187 9.835,264.633 9.633,264.515 9.752 C 264.396 9.871,263.783 9.702,263.153 9.376 C 262.524 9.050,261.961 8.797,261.904 8.813 C 261.444 8.940,258.336 8.220,258.168 7.947 C 258.049 7.756,257.423 7.600,256.776 7.600 C 256.129 7.600,255.600 7.420,255.600 7.200 C 255.600 6.980,254.981 6.800,254.224 6.800 C 253.467 6.800,252.736 6.620,252.600 6.400 C 252.464 6.180,251.834 6.000,251.200 6.000 C 250.566 6.000,249.936 5.820,249.800 5.600 C 249.664 5.380,248.843 5.200,247.976 5.200 C 247.109 5.200,246.400 5.020,246.400 4.800 C 246.400 4.580,245.691 4.400,244.824 4.400 C 243.957 4.400,243.136 4.220,243.000 4.000 C 242.864 3.780,242.054 3.600,241.200 3.600 C 240.346 3.600,239.536 3.420,239.400 3.200 C 239.264 2.980,238.263 2.800,237.176 2.800 C 236.089 2.800,235.200 2.636,235.200 2.436 C 235.200 2.235,234.165 1.972,232.900 1.851 C 231.635 1.730,229.250 1.439,227.600 1.203 C 225.950 0.968,222.800 0.620,220.600 0.430 C 215.633 0.001,183.896 0.025,179.000 0.461 M197.400 113.998 C 196.520 114.416,194.720 115.234,193.400 115.817 C 192.080 116.400,190.100 117.289,189.000 117.792 C 187.900 118.295,186.190 119.067,185.200 119.507 C 182.074 120.898,171.891 125.469,169.600 126.510 C 168.390 127.060,166.500 127.908,165.400 128.393 C 164.300 128.878,162.500 129.687,161.400 130.189 C 158.107 131.692,155.092 133.072,153.500 133.803 C 152.675 134.181,152.000 134.614,152.000 134.764 C 152.000 134.914,162.812 140.395,176.027 146.943 L 200.054 158.850 202.727 157.603 C 208.686 154.821,248.395 134.985,248.397 134.788 C 248.400 134.549,242.892 131.976,236.000 128.996 C 232.942 127.673,230.083 126.387,225.800 124.404 C 224.480 123.793,222.680 122.981,221.800 122.599 C 220.307 121.951,219.376 121.532,213.900 119.047 C 212.745 118.523,210.900 117.690,209.800 117.197 C 208.700 116.703,206.900 115.891,205.800 115.391 C 200.295 112.888,199.886 112.820,197.400 113.998 M254.205 292.800 C 254.787 296.336,256.377 302.966,256.219 301.200 C 256.131 300.210,255.881 298.590,255.664 297.600 C 255.448 296.610,255.101 294.851,254.894 293.692 C 254.686 292.532,254.380 291.452,254.213 291.292 C 254.045 291.131,254.042 291.810,254.205 292.800 M256.597 305.000 C 257.005 308.105,256.884 308.000,260.059 308.000 C 277.894 308.000,281.523 332.263,264.400 337.028 C 262.826 337.466,262.751 337.532,263.800 337.560 C 266.150 337.623,272.800 333.626,272.800 332.152 C 272.800 331.848,272.947 331.600,273.126 331.600 C 273.585 331.600,275.200 328.475,275.200 327.586 C 275.200 327.180,275.380 326.736,275.600 326.600 C 275.821 326.463,276.000 324.663,276.000 322.576 C 276.000 320.325,275.838 318.800,275.600 318.800 C 275.380 318.800,275.200 318.457,275.200 318.038 C 275.200 315.004,268.650 308.400,265.642 308.400 C 265.267 308.400,264.788 308.228,264.578 308.018 C 264.368 307.808,262.667 307.583,260.798 307.518 L 257.400 307.400 257.275 305.600 C 257.206 304.610,256.966 303.620,256.742 303.400 C 256.465 303.129,256.419 303.644,256.597 305.000 " stroke="none" fill="#fb6b13" fill-rule="evenodd"></path><path id="path3" d="M146.400 102.000 L 92.600 102.204 139.600 102.244 C 165.450 102.265,213.690 102.165,246.800 102.022 L 307.000 101.761 253.600 101.778 C 224.230 101.788,175.990 101.888,146.400 102.000 M90.000 102.800 C 89.467 103.145,89.467 103.188,90.000 103.188 C 90.330 103.188,90.870 103.013,91.200 102.800 C 91.733 102.455,91.733 102.412,91.200 102.412 C 90.870 102.412,90.330 102.587,90.000 102.800 M86.378 105.500 L 85.000 107.000 86.500 105.622 C 87.896 104.338,88.184 104.000,87.878 104.000 C 87.812 104.000,87.137 104.675,86.378 105.500 M312.400 104.125 C 312.400 104.194,312.985 104.779,313.700 105.425 L 315.000 106.600 313.825 105.300 C 312.730 104.088,312.400 103.816,312.400 104.125 M83.398 171.100 L 83.400 230.600 199.699 230.950 C 292.445 231.229,316.119 231.199,316.599 230.801 C 317.130 230.360,317.188 223.347,317.101 170.851 L 317.003 111.400 316.900 170.781 C 316.839 206.282,316.649 230.311,316.429 230.531 C 316.205 230.755,270.555 230.782,199.832 230.600 L 83.603 230.300 83.499 170.950 L 83.396 111.600 83.398 171.100 M151.600 165.543 L 151.600 195.886 162.500 201.312 C 190.964 215.483,199.328 219.600,199.651 219.600 C 199.847 219.600,200.000 206.272,200.000 189.213 L 200.000 158.826 176.169 147.013 C 163.061 140.516,152.171 135.200,151.969 135.200 C 151.747 135.200,151.600 147.306,151.600 165.543 M248.590 165.400 C 248.590 181.900,248.639 188.708,248.700 180.530 C 248.760 172.351,248.760 158.851,248.700 150.530 C 248.639 142.208,248.590 148.900,248.590 165.400 " stroke="none" fill="#4b7bfb" fill-rule="evenodd"></path><path id="path4" d="M168.600 1.600 C 168.464 1.820,168.623 2.000,168.953 2.000 C 169.283 2.000,169.664 1.820,169.800 1.600 C 169.936 1.380,169.777 1.200,169.447 1.200 C 169.117 1.200,168.736 1.380,168.600 1.600 M267.200 10.620 C 267.200 10.959,270.057 12.076,270.300 11.833 C 270.418 11.715,270.174 11.511,269.757 11.380 C 269.341 11.249,268.687 10.975,268.305 10.771 C 267.512 10.347,267.200 10.305,267.200 10.620 M299.200 25.568 C 299.750 26.016,300.425 26.386,300.700 26.391 C 300.975 26.396,301.200 26.580,301.200 26.800 C 301.200 27.020,301.391 27.200,301.624 27.200 C 302.419 27.200,301.548 26.390,299.873 25.572 L 298.200 24.755 299.200 25.568 M95.256 28.413 C 94.016 29.446,94.575 29.435,95.891 28.400 C 96.450 27.960,96.749 27.606,96.554 27.613 C 96.359 27.621,95.775 27.981,95.256 28.413 M303.600 28.020 C 304.987 28.961,305.778 29.235,304.800 28.436 C 304.250 27.986,303.620 27.617,303.400 27.615 C 303.180 27.613,303.270 27.796,303.600 28.020 M78.860 39.442 C 78.562 39.778,78.399 40.132,78.495 40.229 C 78.592 40.326,78.998 40.044,79.398 39.602 C 79.797 39.161,79.961 38.807,79.762 38.815 C 79.563 38.824,79.157 39.105,78.860 39.442 M72.400 44.600 C 71.850 44.914,71.580 45.172,71.800 45.172 C 72.020 45.172,72.650 44.914,73.200 44.600 C 73.750 44.286,74.020 44.028,73.800 44.028 C 73.580 44.028,72.950 44.286,72.400 44.600 M327.400 44.988 C 328.978 46.281,329.665 46.293,328.162 45.000 C 327.523 44.451,326.820 44.002,326.600 44.002 C 326.380 44.003,326.740 44.447,327.400 44.988 M66.629 49.429 C 66.205 49.738,65.936 50.069,66.030 50.163 C 66.124 50.257,66.548 50.081,66.971 49.771 C 67.395 49.462,67.664 49.131,67.570 49.037 C 67.476 48.943,67.052 49.119,66.629 49.429 M332.400 48.990 C 332.400 49.359,335.344 51.990,335.538 51.795 C 335.619 51.714,335.257 51.233,334.735 50.724 C 333.325 49.352,332.400 48.665,332.400 48.990 M48.868 67.448 C 48.355 68.240,48.122 68.772,48.349 68.631 C 48.982 68.241,50.499 65.999,50.127 66.005 C 49.947 66.008,49.381 66.657,48.868 67.448 M349.600 66.229 C 349.600 66.527,350.675 67.600,350.975 67.600 C 351.102 67.600,350.982 67.240,350.707 66.800 C 350.238 66.049,349.600 65.720,349.600 66.229 M45.400 71.433 C 44.740 72.190,44.132 73.032,44.048 73.304 C 43.964 73.577,44.542 73.080,45.331 72.200 C 46.121 71.320,46.774 70.465,46.783 70.300 C 46.808 69.852,46.705 69.936,45.400 71.433 M355.037 72.600 C 355.397 73.150,355.757 73.600,355.837 73.600 C 355.917 73.600,355.778 73.150,355.527 72.600 C 355.277 72.050,354.916 71.600,354.727 71.600 C 354.537 71.600,354.676 72.050,355.037 72.600 M357.200 75.117 C 357.200 75.351,357.461 75.804,357.781 76.124 C 358.100 76.443,358.250 76.816,358.114 76.952 C 357.978 77.089,358.077 77.200,358.333 77.200 C 358.990 77.200,358.918 76.876,358.000 75.709 C 357.560 75.150,357.200 74.884,357.200 75.117 M39.260 79.042 C 38.962 79.378,38.799 79.732,38.895 79.829 C 38.992 79.926,39.398 79.644,39.798 79.202 C 40.197 78.761,40.361 78.407,40.162 78.415 C 39.963 78.424,39.557 78.705,39.260 79.042 M28.300 95.414 C 27.301 96.750,27.431 97.123,28.446 95.833 C 28.911 95.242,29.226 94.695,29.146 94.618 C 29.066 94.541,28.685 94.900,28.300 95.414 M371.160 95.000 C 371.834 96.305,372.388 97.028,372.385 96.600 C 372.383 96.380,372.014 95.750,371.564 95.200 C 371.021 94.536,370.885 94.469,371.160 95.000 M26.261 98.700 L 25.574 100.200 26.378 99.200 C 27.071 98.338,27.467 97.200,27.074 97.200 C 27.005 97.200,26.639 97.875,26.261 98.700 M372.832 97.521 C 372.814 97.808,373.250 98.705,373.800 99.514 C 374.350 100.323,374.800 100.837,374.800 100.655 C 374.800 100.472,374.466 99.846,374.057 99.262 C 373.648 98.678,373.213 97.930,373.089 97.600 C 372.936 97.194,372.853 97.168,372.832 97.521 M329.200 99.207 C 329.200 99.643,329.380 100.000,329.600 100.000 C 329.820 100.000,330.000 100.450,330.000 101.000 C 330.000 101.550,330.180 102.000,330.400 102.000 C 330.620 102.000,330.800 102.619,330.800 103.376 C 330.800 104.133,330.980 104.864,331.200 105.000 C 331.754 105.342,331.754 260.658,331.200 261.000 C 330.980 261.136,330.800 261.689,330.800 262.229 C 330.800 262.769,330.640 263.523,330.444 263.905 C 330.248 264.287,329.665 265.500,329.149 266.600 C 328.633 267.700,328.110 268.690,327.986 268.800 C 327.863 268.910,327.329 269.630,326.800 270.400 C 325.351 272.509,321.129 276.000,320.028 276.000 C 319.793 276.000,319.600 276.180,319.600 276.400 C 319.600 276.620,319.240 276.800,318.800 276.800 C 318.360 276.800,318.000 276.980,318.000 277.200 C 318.000 277.420,317.561 277.600,317.024 277.600 C 316.487 277.600,315.936 277.780,315.800 278.000 C 315.664 278.220,314.764 278.400,313.800 278.400 C 312.836 278.400,311.936 278.580,311.800 278.800 C 311.639 279.061,301.182 279.200,281.734 279.200 C 253.496 279.200,251.929 279.237,252.190 279.900 C 252.487 280.653,252.878 282.633,253.790 288.000 C 254.349 291.293,254.848 293.855,255.661 297.600 C 255.876 298.590,256.140 300.120,256.249 301.000 C 256.357 301.880,256.610 302.960,256.812 303.400 C 257.014 303.840,257.228 304.920,257.289 305.800 L 257.400 307.400 260.798 307.518 C 262.667 307.583,264.368 307.808,264.578 308.018 C 264.788 308.228,265.267 308.400,265.642 308.400 C 268.650 308.400,275.200 315.004,275.200 318.038 C 275.200 318.457,275.380 318.800,275.600 318.800 C 275.838 318.800,276.000 320.325,276.000 322.576 C 276.000 324.663,275.821 326.463,275.600 326.600 C 275.380 326.736,275.200 327.180,275.200 327.586 C 275.200 328.475,273.585 331.600,273.126 331.600 C 272.947 331.600,272.800 331.848,272.800 332.152 C 272.800 332.965,269.565 335.474,266.913 336.716 L 264.600 337.800 200.200 337.800 C 140.563 337.800,135.669 337.750,134.023 337.120 C 132.479 336.530,136.386 340.603,163.823 368.188 L 195.400 399.936 209.400 399.767 C 217.100 399.675,223.805 399.597,224.300 399.595 C 224.795 399.593,225.200 399.413,225.200 399.196 C 225.200 398.973,226.413 398.800,227.976 398.800 C 229.503 398.800,230.864 398.620,231.000 398.400 C 231.136 398.180,232.317 398.000,233.624 398.000 C 234.941 398.000,236.000 397.822,236.000 397.600 C 236.000 397.380,236.889 397.200,237.976 397.200 C 239.063 397.200,240.064 397.020,240.200 396.800 C 240.336 396.580,241.121 396.400,241.944 396.400 C 242.767 396.400,243.611 396.229,243.821 396.019 C 244.030 395.810,244.876 395.593,245.701 395.537 C 246.525 395.482,247.200 395.293,247.200 395.118 C 247.200 394.943,247.920 394.800,248.800 394.800 C 249.680 394.800,250.400 394.620,250.400 394.400 C 250.400 394.180,251.120 394.000,252.000 394.000 C 252.880 394.000,253.600 393.820,253.600 393.600 C 253.600 393.380,254.140 393.200,254.800 393.200 C 255.460 393.200,256.000 393.020,256.000 392.800 C 256.000 392.580,256.630 392.400,257.400 392.400 C 258.170 392.400,258.800 392.238,258.800 392.039 C 258.800 391.841,259.880 391.553,261.200 391.400 C 262.520 391.247,263.600 390.959,263.600 390.761 C 263.600 390.562,264.039 390.400,264.576 390.400 C 265.113 390.400,265.664 390.220,265.800 390.000 C 265.936 389.780,266.399 389.600,266.829 389.600 C 267.259 389.600,267.968 389.420,268.405 389.200 C 268.842 388.980,269.558 388.620,269.995 388.400 C 270.432 388.180,271.152 388.000,271.595 388.000 C 272.038 388.000,272.400 387.820,272.400 387.600 C 272.400 387.380,272.850 387.200,273.400 387.200 C 273.950 387.200,274.400 387.020,274.400 386.800 C 274.400 386.580,274.760 386.400,275.200 386.400 C 275.640 386.400,276.000 386.220,276.000 386.000 C 276.000 385.780,276.540 385.600,277.200 385.600 C 277.860 385.600,278.400 385.420,278.400 385.200 C 278.400 384.980,278.760 384.800,279.200 384.800 C 279.640 384.800,280.000 384.620,280.000 384.400 C 280.000 384.180,280.360 384.000,280.800 384.000 C 281.240 384.000,281.600 383.820,281.600 383.600 C 281.600 383.380,281.949 383.200,282.376 383.200 C 282.803 383.200,283.264 383.020,283.400 382.800 C 283.536 382.580,284.087 382.400,284.624 382.400 C 285.161 382.400,285.600 382.220,285.600 382.000 C 285.600 381.780,285.960 381.600,286.400 381.600 C 286.840 381.600,287.200 381.420,287.200 381.200 C 287.200 380.980,287.560 380.800,288.000 380.800 C 288.440 380.800,288.800 380.654,288.800 380.475 C 288.800 380.296,289.430 379.902,290.200 379.600 C 290.970 379.298,291.600 378.904,291.600 378.725 C 291.600 378.546,291.960 378.400,292.400 378.400 C 292.840 378.400,293.200 378.220,293.200 378.000 C 293.200 377.780,293.560 377.600,294.000 377.600 C 294.440 377.600,294.800 377.420,294.800 377.200 C 294.800 376.980,295.094 376.800,295.453 376.800 C 295.812 376.800,296.397 376.469,296.753 376.064 C 297.109 375.659,297.929 375.197,298.576 375.037 C 299.222 374.878,300.240 374.399,300.837 373.973 C 301.435 373.548,302.121 373.200,302.362 373.200 C 302.603 373.200,302.800 373.020,302.800 372.800 C 302.800 372.580,303.078 372.400,303.417 372.400 C 303.756 372.400,304.420 372.040,304.892 371.600 C 305.364 371.160,305.987 370.800,306.275 370.800 C 306.564 370.800,306.800 370.620,306.800 370.400 C 306.800 370.180,307.030 370.000,307.312 370.000 C 307.593 370.000,308.083 369.640,308.400 369.200 C 308.717 368.760,309.257 368.400,309.600 368.400 C 309.943 368.400,310.483 368.040,310.800 367.600 C 311.117 367.160,311.657 366.800,312.000 366.800 C 312.343 366.800,312.883 366.440,313.200 366.000 C 313.517 365.560,314.057 365.200,314.400 365.200 C 314.743 365.200,315.283 364.840,315.600 364.400 C 315.917 363.960,316.380 363.600,316.629 363.600 C 316.878 363.600,317.646 363.060,318.337 362.400 C 319.028 361.740,319.792 361.200,320.036 361.200 C 320.280 361.200,320.983 360.660,321.600 360.000 C 322.217 359.340,322.934 358.800,323.194 358.800 C 323.454 358.800,324.279 358.170,325.026 357.400 C 325.774 356.630,326.542 356.000,326.732 356.000 C 326.922 356.000,328.213 354.920,329.600 353.600 C 330.987 352.280,332.280 351.200,332.474 351.200 C 332.667 351.200,334.806 349.175,337.226 346.700 C 342.510 341.297,341.297 342.510,346.700 337.226 C 349.175 334.806,351.200 332.667,351.200 332.474 C 351.200 332.280,352.280 330.987,353.600 329.600 C 354.920 328.213,356.000 326.922,356.000 326.732 C 356.000 326.542,356.630 325.774,357.400 325.026 C 358.170 324.279,358.800 323.454,358.800 323.194 C 358.800 322.934,359.340 322.217,360.000 321.600 C 360.660 320.983,361.200 320.280,361.200 320.036 C 361.200 319.792,361.740 319.028,362.400 318.337 C 363.060 317.646,363.600 316.878,363.600 316.629 C 363.600 316.380,363.960 315.917,364.400 315.600 C 364.840 315.283,365.200 314.743,365.200 314.400 C 365.200 314.057,365.560 313.517,366.000 313.200 C 366.440 312.883,366.800 312.343,366.800 312.000 C 366.800 311.657,367.160 311.117,367.600 310.800 C 368.040 310.483,368.400 309.943,368.400 309.600 C 368.400 309.257,368.760 308.717,369.200 308.400 C 369.640 308.083,370.000 307.593,370.000 307.312 C 370.000 307.030,370.180 306.800,370.400 306.800 C 370.620 306.800,370.800 306.564,370.800 306.275 C 370.800 305.987,371.160 305.364,371.600 304.892 C 372.040 304.420,372.400 303.756,372.400 303.417 C 372.400 303.078,372.580 302.800,372.800 302.800 C 373.020 302.800,373.200 302.603,373.200 302.362 C 373.200 302.121,373.548 301.435,373.973 300.837 C 374.399 300.240,374.878 299.222,375.037 298.576 C 375.197 297.929,375.659 297.109,376.064 296.753 C 376.469 296.397,376.800 295.812,376.800 295.453 C 376.800 295.094,376.980 294.800,377.200 294.800 C 377.420 294.800,377.600 294.440,377.600 294.000 C 377.600 293.560,377.780 293.200,378.000 293.200 C 378.220 293.200,378.400 292.840,378.400 292.400 C 378.400 291.960,378.546 291.600,378.725 291.600 C 378.904 291.600,379.298 290.970,379.600 290.200 C 379.902 289.430,380.296 288.800,380.475 288.800 C 380.654 288.800,380.800 288.440,380.800 288.000 C 380.800 287.560,380.980 287.200,381.200 287.200 C 381.420 287.200,381.600 286.840,381.600 286.400 C 381.600 285.960,381.780 285.600,382.000 285.600 C 382.220 285.600,382.400 285.251,382.400 284.824 C 382.400 284.397,382.580 283.936,382.800 283.800 C 383.020 283.664,383.200 283.113,383.200 282.576 C 383.200 282.039,383.380 281.600,383.600 281.600 C 383.820 281.600,384.000 281.240,384.000 280.800 C 384.000 280.360,384.180 280.000,384.400 280.000 C 384.620 280.000,384.800 279.640,384.800 279.200 C 384.800 278.760,384.980 278.400,385.200 278.400 C 385.420 278.400,385.600 277.860,385.600 277.200 C 385.600 276.540,385.780 276.000,386.000 276.000 C 386.220 276.000,386.400 275.640,386.400 275.200 C 386.400 274.760,386.580 274.400,386.800 274.400 C 387.020 274.400,387.200 274.038,387.200 273.595 C 387.200 273.152,387.359 272.477,387.553 272.095 C 388.150 270.922,388.724 269.474,389.255 267.800 C 389.535 266.920,389.907 266.029,390.082 265.820 C 390.257 265.611,390.400 265.037,390.400 264.544 C 390.400 264.051,390.567 263.544,390.772 263.417 C 390.977 263.291,391.267 262.200,391.418 260.994 C 391.569 259.787,391.851 258.800,392.046 258.800 C 392.241 258.800,392.400 258.170,392.400 257.400 C 392.400 256.630,392.580 256.000,392.800 256.000 C 393.020 256.000,393.200 255.460,393.200 254.800 C 393.200 254.140,393.380 253.600,393.600 253.600 C 393.820 253.600,394.000 252.880,394.000 252.000 C 394.000 251.120,394.180 250.400,394.400 250.400 C 394.620 250.400,394.800 249.680,394.800 248.800 C 394.800 247.920,394.943 247.200,395.118 247.200 C 395.293 247.200,395.481 246.525,395.536 245.700 C 395.590 244.875,395.807 244.140,396.018 244.067 C 396.228 243.993,396.400 243.048,396.400 241.967 C 396.400 240.885,396.580 240.000,396.800 240.000 C 397.020 240.000,397.200 239.100,397.200 238.000 C 397.200 236.900,397.380 236.000,397.600 236.000 C 397.822 236.000,398.000 234.941,398.000 233.624 C 398.000 232.317,398.180 231.136,398.400 231.000 C 398.620 230.864,398.800 229.518,398.800 228.010 C 398.800 226.171,398.965 225.212,399.300 225.100 C 399.693 224.969,399.800 219.591,399.800 200.000 C 399.800 180.409,399.693 175.031,399.300 174.900 C 398.990 174.797,398.800 173.984,398.800 172.767 C 398.800 171.685,398.620 170.800,398.400 170.800 C 398.180 170.800,398.003 170.485,398.006 170.100 C 398.011 169.502,398.069 169.487,398.400 170.000 C 398.734 170.517,398.789 170.507,398.794 169.924 C 398.797 169.552,398.620 169.136,398.400 169.000 C 398.180 168.864,398.000 168.223,398.000 167.576 C 398.000 166.929,397.814 166.400,397.586 166.400 C 397.358 166.400,381.878 151.103,363.186 132.407 C 340.460 109.676,329.200 98.676,329.200 99.207 M11.097 268.976 C 11.206 269.546,11.473 270.122,11.691 270.256 C 11.937 270.408,11.977 270.142,11.798 269.550 C 11.383 268.179,10.864 267.753,11.097 268.976 M101.573 298.173 C 123.575 320.177,123.747 320.338,124.272 319.327 C 124.562 318.767,124.800 318.065,124.800 317.766 C 124.800 316.231,129.828 310.000,131.068 310.000 C 131.360 310.000,131.600 309.820,131.600 309.600 C 131.600 309.380,131.960 309.200,132.400 309.200 C 132.840 309.200,133.200 309.020,133.200 308.800 C 133.200 308.580,133.729 308.400,134.376 308.400 C 135.023 308.400,135.664 308.220,135.800 308.000 C 135.936 307.780,137.567 307.600,139.424 307.600 L 142.800 307.600 142.800 305.824 C 142.800 304.847,142.980 303.936,143.200 303.800 C 143.420 303.664,143.600 302.764,143.600 301.800 C 143.600 300.836,143.780 299.936,144.000 299.800 C 144.220 299.664,144.400 298.764,144.400 297.800 C 144.400 296.836,144.580 295.936,144.800 295.800 C 145.020 295.664,145.200 294.764,145.200 293.800 C 145.200 292.836,145.357 291.950,145.550 291.831 C 145.742 291.712,146.001 290.666,146.125 289.507 C 146.249 288.348,146.715 285.690,147.162 283.600 C 147.608 281.510,147.979 279.668,147.987 279.507 C 147.994 279.347,134.635 279.145,118.300 279.061 C 89.907 278.913,85.476 278.768,84.620 277.959 C 84.411 277.762,83.837 277.600,83.344 277.600 C 82.851 277.600,82.336 277.420,82.200 277.200 C 82.064 276.980,81.603 276.800,81.176 276.800 C 80.749 276.800,80.400 276.620,80.400 276.400 C 80.400 276.180,80.176 276.000,79.901 276.000 C 79.627 276.000,89.379 285.978,101.573 298.173 M25.586 299.900 C 26.042 300.835,26.486 301.600,26.571 301.600 C 26.923 301.600,26.301 300.130,25.556 299.200 C 24.781 298.233,24.782 298.256,25.586 299.900 M27.600 303.320 C 27.600 303.704,29.645 306.800,29.899 306.800 C 30.078 306.800,29.441 305.719,28.139 303.811 C 27.842 303.377,27.600 303.156,27.600 303.320 M44.000 326.133 C 44.000 326.606,44.848 328.105,45.463 328.720 C 46.309 329.567,46.092 328.893,45.000 327.286 C 44.450 326.477,44.000 325.958,44.000 326.133 M49.251 333.093 C 50.231 334.329,51.645 335.689,51.795 335.538 C 51.990 335.344,49.359 332.400,48.990 332.400 C 48.832 332.400,48.949 332.712,49.251 333.093 M66.005 349.900 C 66.008 350.065,66.683 350.622,67.505 351.137 L 69.000 352.074 67.722 350.837 C 66.432 349.589,65.996 349.351,66.005 349.900 M71.600 354.800 C 72.107 355.240,72.699 355.600,72.915 355.600 C 73.131 355.600,72.850 355.240,72.291 354.800 C 71.731 354.360,71.140 354.000,70.976 354.000 C 70.812 354.000,71.093 354.360,71.600 354.800 M75.200 357.583 C 76.406 358.475,77.200 358.824,77.200 358.461 C 77.200 358.259,76.885 357.982,76.500 357.846 C 76.115 357.711,75.530 357.496,75.200 357.369 C 74.667 357.165,74.667 357.188,75.200 357.583 M99.200 373.964 C 99.750 374.414,100.380 374.783,100.600 374.785 C 101.028 374.788,100.305 374.234,99.000 373.560 C 98.469 373.285,98.536 373.421,99.200 373.964 " stroke="none" fill="#f44404" fill-rule="evenodd"></path></g></svg>